# Blender v2.91.0 OBJ File: 'godot_materialtest.blend'
# www.blender.org
mtllib godot_materialtest.mtl
o Cube.001
v 1.000000 0.000000 1.000000
v 0.000000 -1.000000 1.000000
v 1.000000 0.000000 3.000000
v 0.000000 -1.000000 3.000000
v -1.000000 0.000000 1.000000
v -1.000000 0.000000 3.000000
v 1.000000 1.000000 3.000000
v 0.000000 1.000000 3.000000
v 1.000000 1.000000 1.000000
v 0.000000 1.000000 1.000000
v -0.548449 -1.000000 1.000000
v -1.000000 -0.548449 1.000000
v -0.665319 -0.984614 1.000000
v -0.774224 -0.939504 1.000000
v -0.867744 -0.867744 1.000000
v -0.939504 -0.774224 1.000000
v -0.984614 -0.665319 1.000000
v -1.000000 -0.548449 3.000000
v -0.548449 -1.000000 3.000000
v -0.984614 -0.665319 3.000000
v -0.939504 -0.774224 3.000000
v -0.867744 -0.867744 3.000000
v -0.774224 -0.939504 3.000000
v -0.665319 -0.984614 3.000000
vt -0.525650 0.004715
vt 1.522569 -0.009567
vt 1.494955 0.735674
vt -0.469763 0.746391
vt 0.560571 0.231000
vt 1.137592 0.519511
vt -0.016451 0.519511
vt -0.016451 0.361277
vt -0.007573 0.327559
vt 0.018457 0.296138
vt 0.059864 0.269157
vt 0.113827 0.248454
vt 0.176667 0.235439
vt 0.244104 0.231000
vt 0.244104 0.231000
vt 0.176667 0.235439
vt 0.113827 0.248453
vt 0.059864 0.269157
vt 0.018457 0.296138
vt -0.007573 0.327559
vt -0.016451 0.361277
vt -0.016451 0.519510
vt 1.137592 0.519510
vt 0.560571 0.231000
vt 0.375000 0.500000
vt 0.625000 0.500000
vt 0.625000 0.750000
vt 0.375000 0.750000
vt 0.487888 0.000000
vt 0.625000 0.000000
vt 0.625000 0.250000
vt 0.487888 0.250000
vt 0.625000 0.500000
vt 0.875000 0.500000
vt 0.875000 0.750000
vt 0.625000 0.750000
vt 0.560571 0.808021
vt 1.137592 0.808021
vt 1.137592 0.808021
vt 0.560571 0.808021
vt 0.237888 0.500000
vt 0.237888 0.750000
vt 0.208670 0.750000
vt 0.208670 0.500000
vt 0.181444 0.750000
vt 0.181444 0.500000
vt 0.125000 0.750000
vt 0.125000 0.500000
vt 0.375000 0.250000
vt 0.375000 0.000000
vt 0.431444 0.000000
vt 0.431444 0.250000
vt 0.458670 0.000000
vt 0.458670 0.250000
vn -0.7071 0.7071 0.0000
vn 0.0000 0.0000 1.0000
vn 0.0000 0.0000 -1.0000
vn 0.7071 -0.7071 0.0000
vn -0.9979 -0.0654 0.0000
vn -1.0000 0.0000 0.0000
vn 0.0000 1.0000 0.0000
vn 1.0000 0.0000 0.0000
vn -0.0654 -0.9979 0.0000
vn -0.2588 -0.9659 0.0000
vn -0.5000 -0.8660 0.0000
vn -0.7071 -0.7071 0.0000
vn -0.8660 -0.5000 0.0000
vn -0.9659 -0.2588 0.0000
vn 0.0000 -1.0000 0.0000
usemtl Material
s 1
f 5/1/1 6/2/1 8/3/1 10/4/1
f 4/5/2 3/6/2 6/7/2 18/8/2 20/9/2 21/10/2 22/11/2 23/12/2 24/13/2 19/14/2
f 11/15/3 13/16/3 14/17/3 15/18/3 16/19/3 17/20/3 12/21/3 5/22/3 1/23/3 2/24/3
f 2/25/4 1/26/4 3/27/4 4/28/4
f 18/29/5 6/30/6 5/31/6 12/32/5
f 9/33/7 10/34/7 8/35/7 7/36/7
f 3/27/8 1/26/8 9/33/8 7/36/8
f 1/23/3 5/22/3 10/37/3 9/38/3
f 6/7/2 3/6/2 7/39/2 8/40/2
f 11/41/9 19/42/9 24/43/10 13/44/10
f 13/44/10 24/43/10 23/45/11 14/46/11
f 14/46/11 23/45/11 22/47/12 15/48/12
f 15/49/12 22/50/12 21/51/13 16/52/13
f 16/52/13 21/51/13 20/53/14 17/54/14
f 17/54/14 20/53/14 18/29/5 12/32/5
f 11/41/9 2/25/15 4/28/15 19/42/9
o Cube.002
v -0.106255 -0.106255 1.291960
v -0.106255 0.106255 1.291960
v -0.106255 -0.106255 -1.291960
v -0.106255 0.106255 -1.291960
v 0.106255 -0.106255 1.291960
v 0.106255 0.106255 1.291960
v 0.106255 -0.106255 -1.291960
v 0.106255 0.106255 -1.291960
vt 0.375000 0.000000
vt 0.625000 0.000000
vt 0.625000 0.250000
vt 0.375000 0.250000
vt 0.625000 0.500000
vt 0.375000 0.500000
vt 0.625000 0.750000
vt 0.375000 0.750000
vt 0.625000 1.000000
vt 0.375000 1.000000
vt 0.125000 0.500000
vt 0.125000 0.750000
vt 0.875000 0.500000
vt 0.875000 0.750000
vn -1.0000 0.0000 0.0000
vn 0.0000 0.0000 -1.0000
vn 1.0000 0.0000 0.0000
vn 0.0000 0.0000 1.0000
vn 0.0000 -1.0000 0.0000
vn 0.0000 1.0000 0.0000
usemtl Dull
s off
f 25/55/16 26/56/16 28/57/16 27/58/16
f 27/58/17 28/57/17 32/59/17 31/60/17
f 31/60/18 32/59/18 30/61/18 29/62/18
f 29/62/19 30/61/19 26/63/19 25/64/19
f 27/65/20 31/60/20 29/62/20 25/66/20
f 32/59/21 28/67/21 26/68/21 30/61/21
o Cube.003
v 1.000000 0.000000 -3.000000
v 0.000000 -1.000000 -3.000000
v 1.000000 0.000000 -1.000000
v 0.000000 -1.000000 -1.000000
v -1.000000 0.000000 -3.000000
v -1.000000 0.000000 -1.000000
v 1.000000 1.000000 -1.000000
v 0.000000 1.000000 -1.000000
v 1.000000 1.000000 -3.000000
v 0.000000 1.000000 -3.000000
v -0.548449 -1.000000 -3.000000
v -1.000000 -0.548449 -3.000000
v -0.665319 -0.984614 -3.000000
v -0.774224 -0.939504 -3.000000
v -0.867744 -0.867744 -3.000000
v -0.939504 -0.774224 -3.000000
v -0.984614 -0.665319 -3.000000
v -1.000000 -0.548449 -1.000000
v -0.548449 -1.000000 -1.000000
v -0.984614 -0.665319 -1.000000
v -0.939504 -0.774224 -1.000000
v -0.867744 -0.867744 -1.000000
v -0.774224 -0.939504 -1.000000
v -0.665319 -0.984614 -1.000000
vt -0.525650 0.004715
vt 1.522569 -0.009567
vt 1.494955 0.735674
vt -0.469763 0.746391
vt 0.560571 0.231000
vt 1.137592 0.519511
vt -0.016451 0.519511
vt -0.016451 0.361277
vt -0.007573 0.327559
vt 0.018457 0.296138
vt 0.059864 0.269157
vt 0.113827 0.248454
vt 0.176667 0.235439
vt 0.244104 0.231000
vt 0.244104 0.231000
vt 0.176667 0.235439
vt 0.113827 0.248453
vt 0.059864 0.269157
vt 0.018457 0.296138
vt -0.007573 0.327559
vt -0.016451 0.361277
vt -0.016451 0.519510
vt 1.137592 0.519510
vt 0.560571 0.231000
vt 0.375000 0.500000
vt 0.625000 0.500000
vt 0.625000 0.750000
vt 0.375000 0.750000
vt 0.487888 0.000000
vt 0.625000 0.000000
vt 0.625000 0.250000
vt 0.487888 0.250000
vt 0.625000 0.500000
vt 0.875000 0.500000
vt 0.875000 0.750000
vt 0.625000 0.750000
vt 0.560571 0.808021
vt 1.137592 0.808021
vt 1.137592 0.808021
vt 0.560571 0.808021
vt 0.237888 0.500000
vt 0.237888 0.750000
vt 0.208670 0.750000
vt 0.208670 0.500000
vt 0.181444 0.750000
vt 0.181444 0.500000
vt 0.125000 0.750000
vt 0.125000 0.500000
vt 0.375000 0.250000
vt 0.375000 0.000000
vt 0.431444 0.000000
vt 0.431444 0.250000
vt 0.458670 0.000000
vt 0.458670 0.250000
vn -0.7071 0.7071 0.0000
vn 0.0000 0.0000 1.0000
vn 0.0000 0.0000 -1.0000
vn 0.7071 -0.7071 0.0000
vn -0.9979 -0.0654 0.0000
vn -1.0000 0.0000 0.0000
vn 0.0000 1.0000 0.0000
vn 1.0000 0.0000 0.0000
vn -0.0654 -0.9979 0.0000
vn -0.2588 -0.9659 0.0000
vn -0.5000 -0.8660 0.0000
vn -0.7071 -0.7071 0.0000
vn -0.8660 -0.5000 0.0000
vn -0.9659 -0.2588 0.0000
vn 0.0000 -1.0000 0.0000
usemtl FQTexture
s 1
f 37/69/22 38/70/22 40/71/22 42/72/22
f 36/73/23 35/74/23 38/75/23 50/76/23 52/77/23 53/78/23 54/79/23 55/80/23 56/81/23 51/82/23
f 43/83/24 45/84/24 46/85/24 47/86/24 48/87/24 49/88/24 44/89/24 37/90/24 33/91/24 34/92/24
f 34/93/25 33/94/25 35/95/25 36/96/25
f 50/97/26 38/98/27 37/99/27 44/100/26
f 41/101/28 42/102/28 40/103/28 39/104/28
f 35/95/29 33/94/29 41/101/29 39/104/29
f 33/91/24 37/90/24 42/105/24 41/106/24
f 38/75/23 35/74/23 39/107/23 40/108/23
f 43/109/30 51/110/30 56/111/31 45/112/31
f 45/112/31 56/111/31 55/113/32 46/114/32
f 46/114/32 55/113/32 54/115/33 47/116/33
f 47/117/33 54/118/33 53/119/34 48/120/34
f 48/120/34 53/119/34 52/121/35 49/122/35
f 49/122/35 52/121/35 50/97/26 44/100/26
f 43/109/30 34/93/36 36/96/36 51/110/30
