# Blender v2.91.0 OBJ File: 'neracla_mountain.blend'
# www.blender.org
mtllib neracla_mountain_collision.mtl
o Plane
v -6.135860 -8.538127 -89.041122
v -6.135860 -8.538127 223.084732
v -6.135860 2.660931 -150.581802
v -6.135860 -5.962894 -109.554688
v -6.135860 -2.229875 -130.068253
v -6.135860 3.041970 -155.806290
v 6.135860 -8.538127 -89.041122
v 0.000000 -8.538127 -89.041122
v 6.135860 -8.538127 223.084732
v 0.000000 -8.538127 223.084732
v 6.135860 2.660931 -150.581802
v 0.000000 2.660931 -150.581802
v 0.000000 -2.229876 -130.068253
v 0.000000 -5.962895 -109.554688
v 6.135860 -5.962894 -109.554688
v 6.135860 -2.229875 -130.068253
v 6.135860 3.041970 -155.806290
v 0.000000 3.041970 -155.806290
vt 0.000000 0.000000
vt 0.000000 1.000000
vt 1.000000 1.000000
vt 1.000000 0.000000
vt 1.000000 0.000000
vt 1.000000 0.000000
vt 0.000000 0.000000
vt 0.000000 0.000000
vt 1.000000 0.000000
vt 0.000000 0.000000
vt 1.000000 0.000000
vt 0.000000 0.000000
vt 0.000000 0.000000
vt 0.000000 1.000000
vt 0.000000 0.000000
vt 0.000000 0.000000
vt 0.000000 0.000000
vt 0.000000 0.000000
vn 0.0000 1.0000 0.0000
vn 0.0000 0.9727 0.2319
vn 0.0000 0.9922 0.1246
vn 0.0000 0.9838 0.1790
vn 0.0000 0.9974 0.0727
usemtl Highway
s off
f 1/1/1 2/2/1 10/3/1 8/4/1
f 13/5/2 12/6/2 3/7/2 5/8/2
f 8/4/3 14/9/3 4/10/3 1/1/3
f 14/9/4 13/5/4 5/8/4 4/10/4
f 12/6/5 18/11/5 6/12/5 3/7/5
f 7/13/1 8/4/1 10/3/1 9/14/1
f 13/5/2 16/15/2 11/16/2 12/6/2
f 8/4/3 7/13/3 15/17/3 14/9/3
f 14/9/4 15/17/4 16/15/4 13/5/4
f 12/6/5 11/16/5 17/18/5 18/11/5
o Road_Plane.003
v -72.944061 6.210836 -131.207016
v -17.000000 0.000000 -129.345963
v -72.944061 6.210836 -140.515091
v -17.000000 0.000000 -138.654037
v -143.552246 17.392315 -147.382812
v -138.570892 17.392315 -155.245789
v -175.594437 29.984562 -162.181061
v -172.311768 29.984562 -174.948715
v -210.890747 33.128235 -162.565002
v -206.108429 33.128235 -181.165375
v -232.919113 33.996960 -184.076172
v -215.869598 33.996960 -192.916931
v -236.347549 39.855995 -220.768311
v -217.957825 39.855995 -215.230896
v -226.905533 47.220650 -238.128387
v -209.261078 47.220650 -223.588837
v -195.759125 57.835377 -244.408798
v -187.971542 57.835377 -222.912766
v -167.503891 76.735245 -253.180115
v -165.080048 76.735245 -236.821457
v -155.314209 89.133560 -256.835083
v -146.956665 89.133560 -242.565109
v -143.286819 98.249664 -260.059082
v -135.266052 98.249664 -243.432587
v -124.994568 103.924782 -259.986206
v -122.761719 103.924782 -241.661713
v -48.529293 102.495033 -263.697510
v -47.100437 102.495033 -251.971207
v 21.669411 106.972801 -270.321533
v 23.098267 106.972801 -258.595215
v 75.002663 122.471649 -253.080414
v 77.036400 122.471649 -236.390137
v 88.486542 123.979782 -247.576630
v 89.915405 123.979782 -235.850357
v 122.464020 121.884308 -248.644196
v 123.892883 121.884308 -236.917908
v 142.320312 118.743179 -244.404343
v 135.544724 118.743179 -234.727631
v -5.613787 -2.978378 -133.151672
v -5.613787 -2.978378 -142.459747
v 147.370819 116.873634 -222.515411
v 136.870895 116.873634 -217.102539
v 149.041794 111.173416 -213.475769
v 138.541870 111.173416 -208.062897
v 150.768539 105.462357 -208.435699
v 140.268616 105.462357 -203.022827
vt 0.000000 0.000000
vt 1.000000 0.000000
vt 1.000000 1.000000
vt 0.000000 1.000000
vt 0.000000 1.000000
vt 0.000000 0.000000
vt 0.000000 1.000000
vt 0.000000 0.000000
vt 0.000000 1.000000
vt 0.000000 0.000000
vt 0.000000 1.000000
vt 0.000000 0.000000
vt 0.000000 1.000000
vt 0.000000 0.000000
vt 0.000000 1.000000
vt 0.000000 0.000000
vt 0.000000 1.000000
vt 0.000000 0.000000
vt 0.000000 1.000000
vt 0.000000 0.000000
vt 0.000000 1.000000
vt 0.000000 0.000000
vt 0.000000 1.000000
vt 0.000000 0.000000
vt 0.000000 1.000000
vt 0.000000 0.000000
vt 0.000000 1.000000
vt 0.000000 0.000000
vt 0.000000 1.000000
vt 0.000000 0.000000
vt 0.000000 1.000000
vt 0.000000 0.000000
vt 0.000000 1.000000
vt 0.000000 0.000000
vt 0.000000 1.000000
vt 0.000000 0.000000
vt 0.000000 1.000000
vt 0.000000 0.000000
vt 1.000000 0.000000
vt 1.000000 1.000000
vt 0.000000 1.000000
vt 0.000000 0.000000
vt 0.000000 1.000000
vt 0.000000 0.000000
vt 0.000000 1.000000
vt 0.000000 0.000000
vn 0.1103 0.9939 0.0000
vn 0.1521 0.9874 0.0441
vn 0.2995 0.9465 0.1200
vn 0.0884 0.9958 0.0227
vn 0.0298 0.9993 0.0237
vn 0.0180 0.9810 0.1931
vn -0.2073 0.9048 0.3720
vn -0.3419 0.9082 0.2413
vn -0.5449 0.8255 0.1470
vn -0.5810 0.7878 0.2045
vn -0.5507 0.7820 0.2919
vn -0.3494 0.9314 0.1025
vn 0.0186 0.9998 -0.0023
vn -0.0629 0.9980 0.0077
vn -0.2894 0.9566 0.0353
vn -0.1169 0.9930 0.0142
vn 0.0613 0.9981 -0.0075
vn 0.1862 0.9814 0.0465
vn 0.2531 0.9674 0.0000
vn 0.0720 0.9940 0.0824
vn 0.2491 0.8393 0.4832
vn 0.3367 0.6782 0.6532
usemtl DirtRoad
s off
f 19/19/6 20/20/6 22/21/6 21/22/6
f 19/19/7 21/22/7 24/23/7 23/24/7
f 23/24/8 24/23/8 26/25/8 25/26/8
f 25/26/9 26/25/9 28/27/9 27/28/9
f 27/28/10 28/27/10 30/29/10 29/30/10
f 29/30/11 30/29/11 32/31/11 31/32/11
f 31/32/12 32/31/12 34/33/12 33/34/12
f 33/34/13 34/33/13 36/35/13 35/36/13
f 35/36/14 36/35/14 38/37/14 37/38/14
f 37/38/15 38/37/15 40/39/15 39/40/15
f 39/40/16 40/39/16 42/41/16 41/42/16
f 41/42/17 42/41/17 44/43/17 43/44/17
f 43/44/18 44/43/18 46/45/18 45/46/18
f 45/46/19 46/45/19 48/47/19 47/48/19
f 47/48/20 48/47/20 50/49/20 49/50/20
f 49/50/21 50/49/21 52/51/21 51/52/21
f 51/52/22 52/51/22 54/53/22 53/54/22
f 53/54/23 54/53/23 56/55/23 55/56/23
f 22/21/24 20/20/24 57/57/24 58/58/24
f 55/56/25 56/55/25 60/59/25 59/60/25
f 59/60/26 60/59/26 62/61/26 61/62/26
f 61/62/27 62/61/27 64/63/27 63/64/27
o OffroadCollision_Plane.004
v 99.746902 121.713150 -240.588104
v 171.735474 114.927986 -238.716721
v 99.925659 125.455986 -276.179626
v 171.914215 118.670830 -274.308258
v 220.175598 107.244041 -242.725647
v 220.354370 110.986885 -278.317169
v 171.235168 120.439682 -317.313019
v 219.675323 112.755745 -321.321960
v 97.153763 139.397736 -284.661621
v 168.463257 134.381439 -325.795013
v 176.147491 125.195679 -381.142883
v 224.587646 117.511742 -385.151794
v 247.858032 98.360115 -289.457764
v 247.178986 100.128967 -332.462524
v 131.889236 141.541412 -311.750916
v 136.801575 146.297409 -375.580750
v 66.114510 166.599686 -308.742218
v 71.026840 171.355682 -372.572083
v -16.707298 194.695282 -314.176971
v -11.794968 199.451294 -378.006836
v -39.797340 199.545624 -312.689331
v -32.952797 220.823639 -372.867432
v -131.675842 224.458511 -298.231323
v -124.831291 237.736526 -358.409393
v -211.429260 220.191315 -305.546204
v -204.584717 229.469330 -365.724274
v 131.889236 181.541412 -311.750916
v 66.114510 206.599686 -308.742218
v -16.707298 234.695282 -314.176971
v -39.797340 239.545624 -312.689331
v -131.675842 264.458496 -298.231323
v -211.429260 260.191315 -305.546204
v 171.235168 161.439682 -317.313019
v 131.889236 182.541412 -311.750916
v 176.147491 160.195679 -381.142883
v 136.801575 181.297409 -375.580750
v 71.026840 206.355682 -372.572083
v -11.794968 234.451294 -378.006836
v -32.952797 255.823639 -372.867432
v -124.831291 272.736511 -358.409393
v 99.746902 156.713150 -240.588104
v 171.735474 149.927979 -238.716721
v 220.175598 142.244049 -242.725647
v 176.147491 160.195679 -381.142883
v 224.587646 152.511734 -385.151794
v 247.858032 133.360107 -289.457764
v 247.178986 135.128967 -332.462524
vt 0.000000 0.000000
vt 1.000000 0.000000
vt 1.000000 1.000000
vt 0.000000 1.000000
vt 1.000000 0.000000
vt 1.000000 1.000000
vt 1.000000 1.000000
vt 1.000000 1.000000
vt 1.000000 1.000000
vt 0.000000 1.000000
vt 1.000000 1.000000
vt 1.000000 1.000000
vt 1.000000 1.000000
vt 1.000000 1.000000
vt 1.000000 1.000000
vt 1.000000 1.000000
vt 1.000000 1.000000
vt 1.000000 1.000000
vt 1.000000 1.000000
vt 1.000000 1.000000
vt 1.000000 1.000000
vt 1.000000 1.000000
vt 1.000000 1.000000
vt 1.000000 1.000000
vt 1.000000 1.000000
vt 1.000000 1.000000
vt 1.000000 1.000000
vt 1.000000 1.000000
vt 1.000000 1.000000
vt 1.000000 1.000000
vt 1.000000 1.000000
vt 1.000000 1.000000
vt 1.000000 1.000000
vt 1.000000 1.000000
vt 1.000000 1.000000
vt 1.000000 1.000000
vt 1.000000 1.000000
vt 1.000000 1.000000
vt 1.000000 1.000000
vt 1.000000 1.000000
vt 1.000000 1.000000
vt 1.000000 1.000000
vt 1.000000 0.000000
vt 1.000000 0.000000
vt 1.000000 1.000000
vt 1.000000 1.000000
vt 0.000000 0.000000
vn 0.0906 0.9904 0.1046
vn 0.1642 0.9809 0.1040
vn 0.1596 0.9864 0.0381
vn 0.0927 0.9949 0.0395
vn 0.4520 0.5275 0.7193
vn 0.1630 0.9829 0.0858
vn 0.4272 0.9037 0.0304
vn 0.4471 0.8893 0.0958
vn 0.4485 0.8881 0.1007
vn 0.4813 0.8706 0.1019
vn 0.3582 0.9286 0.0968
vn 0.3142 0.9446 0.0946
vn 0.5215 0.8238 0.2224
vn 0.2558 0.9211 0.2936
vn -0.0929 0.9805 0.1732
vn -0.0643 0.0000 -0.9979
vn -0.0457 0.0000 -0.9990
vn -0.1554 0.0000 -0.9878
vn 0.0655 0.0000 -0.9979
vn 0.0913 0.0000 -0.9958
vn -0.1400 0.0000 -0.9902
vn -0.0655 0.0000 0.9979
vn 0.1400 0.0000 0.9902
vn 0.2360 0.0000 0.9717
vn 0.0457 0.0000 0.9990
vn 0.1554 0.0000 0.9878
vn -0.9191 0.0000 0.3941
vn -0.0825 0.0000 -0.9966
vn -0.9999 0.0000 0.0158
vn -0.8604 0.0000 -0.5097
vn 0.0825 0.0000 0.9966
vn 0.0260 0.0000 -0.9997
usemtl Collision
s off
f 65/65/28 66/66/28 68/67/28 67/68/28
f 68/67/29 66/66/29 69/69/29 70/70/29
f 68/67/30 70/70/30 72/71/30 71/72/30
f 68/67/31 71/72/31 67/68/31
f 67/68/32 71/72/32 74/73/32 73/74/32
f 71/72/33 72/71/33 76/75/33 75/76/33
f 72/71/34 70/70/34 77/77/34 78/78/34
f 70/70/35 69/69/35 77/77/35
f 72/71/36 78/78/36 76/75/36
f 71/72/37 75/76/37 80/79/37 79/80/37
f 79/80/38 80/79/38 82/81/38 81/82/38
f 81/82/39 82/81/39 84/83/39 83/84/39
f 83/84/40 84/83/40 86/85/40 85/86/40
f 85/86/41 86/85/41 88/87/41 87/88/41
f 87/88/42 88/87/42 90/89/42 89/90/42
f 83/84/43 85/86/43 94/91/43 93/92/43
f 79/80/44 81/82/44 92/93/44 91/94/44
f 85/86/45 87/88/45 95/95/45 94/91/45
f 81/82/46 83/84/46 93/92/46 92/93/46
f 87/88/47 89/90/47 96/96/47 95/95/47
f 71/72/48 79/80/48 98/97/48 97/98/48
f 84/83/49 82/81/49 101/99/49 102/100/49
f 80/79/50 75/76/50 99/101/50 100/102/50
f 86/85/51 84/83/51 102/100/51 103/103/51
f 82/81/52 80/79/52 100/102/52 101/99/52
f 88/87/53 86/85/53 103/103/53 104/104/53
f 76/75/54 78/78/54 111/105/54 109/106/54
f 69/69/55 66/66/55 106/107/55 107/108/55
f 78/78/56 77/77/56 110/109/56 111/105/56
f 77/77/57 69/69/57 107/108/57 110/109/57
f 75/76/58 76/75/58 109/106/58 108/110/58
f 66/66/59 65/65/59 105/111/59 106/107/59
o Plane.002_Plane.006
v -180.567154 226.358856 -326.713074
v -166.342072 226.358856 -324.973969
v -176.689972 233.090408 -363.960846
v -162.358978 233.090408 -363.960846
v -183.895523 219.666702 -291.731964
v -169.670441 219.666702 -289.992859
v -176.927673 251.149536 -417.230225
v -162.596680 251.149536 -417.230225
v -175.656616 272.310974 -467.634155
v -161.325623 272.310974 -467.634155
v -181.851501 298.250092 -511.661621
v -167.520493 298.250092 -511.661621
v -183.251297 315.092621 -553.855774
v -168.920303 315.092621 -553.855774
v -186.617111 321.150146 -610.995728
v -172.286102 321.150146 -610.995728
v -188.275314 323.424438 -635.018188
v -173.944305 323.424438 -635.018188
vt 0.000000 0.000000
vt 1.000000 0.000000
vt 1.000000 1.000000
vt 0.000000 1.000000
vt 0.000000 0.000000
vt 1.000000 0.000000
vt 1.000000 1.000000
vt 0.000000 1.000000
vt 1.000000 1.000000
vt 0.000000 1.000000
vt 1.000000 1.000000
vt 0.000000 1.000000
vt 1.000000 1.000000
vt 0.000000 1.000000
vt 1.000000 1.000000
vt 0.000000 1.000000
vt 1.000000 1.000000
vt 0.000000 1.000000
vn -0.0105 0.9849 0.1728
vn -0.0227 0.9823 0.1858
vn 0.0000 0.9471 0.3211
vn 0.0000 0.9220 0.3871
vn 0.0000 0.8616 0.5076
vn 0.0000 0.9287 0.3707
vn 0.0000 0.9944 0.1054
vn 0.0000 0.9955 0.0943
usemtl DirtRoad
s off
f 112/112/60 113/113/60 115/114/60 114/115/60
f 113/113/61 112/112/61 116/116/61 117/117/61
f 114/115/62 115/114/62 119/118/62 118/119/62
f 118/119/63 119/118/63 121/120/63 120/121/63
f 120/121/64 121/120/64 123/122/64 122/123/64
f 122/123/65 123/122/65 125/124/65 124/125/65
f 124/125/66 125/124/66 127/126/66 126/127/66
f 126/127/67 127/126/67 129/128/67 128/129/67
